<?xml version="1.0" standalone="no"?>
<!DOCTYPE svg PUBLIC "-//W3C//DTD SVG 20010904//EN"
 "http://www.w3.org/TR/2001/REC-SVG-20010904/DTD/svg10.dtd">
<svg version="1.0" xmlns="http://www.w3.org/2000/svg"
 width="3840.000000pt" height="2160.000000pt" viewBox="0 0 3840.000000 2160.000000"
 preserveAspectRatio="xMidYMid meet">
<metadata>
Created by potrace 1.13, written by Peter Selinger 2001-2015
</metadata>
<g transform="translate(0.000000,2160.000000) scale(0.100000,-0.100000)"
fill="#000000" stroke="none">
<path d="M21662 10308 l3 -5303 40 0 40 0 3 5303 2 5302 -45 0 -45 0 2 -5302z"/>
<path d="M3816 13019 c-173 -177 -182 -188 -355 -448 -160 -240 -195 -302
-363 -631 l-185 -365 -87 -441 -86 -442 0 -387 0 -387 85 -437 86 -436 181
-360 c169 -335 195 -380 369 -640 l187 -280 181 -180 181 -180 37 38 38 38
-182 177 -182 177 -170 257 c-154 232 -188 291 -350 616 l-180 360 -91 444
-90 443 0 351 0 351 90 441 90 442 173 352 c161 329 185 371 346 613 173 259
174 261 359 447 l186 187 -29 31 c-16 16 -36 30 -46 30 -9 0 -96 -82 -193
-181z"/>
<path d="M34277 13172 c-15 -15 -27 -31 -27 -34 0 -4 77 -82 171 -175 l172
-168 180 -270 c171 -256 190 -288 355 -625 l174 -355 89 -434 89 -434 0 -371
0 -371 -89 -435 -88 -435 -177 -353 c-160 -320 -193 -378 -347 -610 -170 -255
-173 -259 -352 -440 -197 -197 -194 -192 -133 -236 l28 -21 180 185 c177 182
183 190 367 465 171 257 201 309 364 632 l178 352 89 448 90 447 0 371 0 371
-90 449 -90 450 -182 360 c-165 328 -198 384 -361 630 -176 265 -183 274 -356
450 -97 99 -183 181 -191 183 -9 1 -28 -10 -43 -26z"/>
<path d="M29330 10570 l0 -1880 45 0 45 0 0 889 0 889 264 259 265 259 169 87
170 87 253 0 254 -1 164 -87 164 -87 81 -230 81 -230 5 -915 5 -915 50 0 50 0
2 890 3 890 -93 285 -93 285 -193 98 -192 97 -286 0 -286 0 -186 -90 -186 -91
-232 -232 -233 -232 0 928 0 927 -45 0 -45 0 0 -1880z"/>
<path d="M12039 11147 l-186 -92 -180 -185 -180 -185 -92 -268 -91 -269 0
-196 0 -197 91 -275 92 -275 181 -184 181 -183 184 -89 184 -89 291 0 291 0
185 90 185 90 138 140 c75 77 139 140 142 140 3 0 5 -97 5 -216 l0 -215 43 3
42 3 3 1253 2 1252 -45 0 -45 0 0 -210 c0 -119 -4 -210 -9 -210 -5 0 -67 61
-138 136 l-128 136 -187 94 -188 94 -292 0 -293 -1 -186 -92z m901 -73 l168
-86 176 -170 176 -170 0 -700 0 -700 -176 -171 -176 -172 -161 -82 -162 -82
-263 0 -262 -1 -168 84 -167 84 -177 173 -177 174 -85 260 -86 260 0 170 0
170 85 260 84 260 178 177 178 176 170 86 170 85 254 0 253 1 168 -86z"/>
<path d="M17310 11150 l-183 -91 -233 -237 -233 -237 -1 308 0 307 -40 0 -40
0 0 -1255 0 -1255 40 0 40 0 0 888 0 887 263 262 262 261 172 86 173 86 256 0
257 0 167 -87 166 -86 87 -261 87 -261 0 -888 0 -887 40 0 40 0 0 898 0 897
-92 284 -92 283 -188 94 -188 94 -288 0 -288 0 -184 -90z"/>
<path d="M24882 11149 l-273 -90 -95 -197 -96 -197 97 -195 97 -196 192 -96
191 -96 440 -87 440 -87 172 -83 172 -83 85 -171 86 -171 0 -82 0 -83 -88
-164 -87 -164 -245 -83 -245 -84 -275 0 -275 0 -249 82 -248 83 -85 170 c-47
94 -87 172 -89 174 -7 7 -74 -33 -74 -44 1 -5 42 -91 93 -190 l92 -179 275
-88 275 -88 289 0 288 0 276 87 275 88 94 189 93 190 0 100 0 101 -92 190 -91
190 -188 97 -188 97 -438 86 -438 86 -181 85 -181 86 -82 167 -83 167 80 160
81 161 253 87 253 86 265 0 265 0 253 -86 253 -87 85 -169 c47 -92 90 -168 95
-168 16 0 69 30 69 39 0 7 -167 359 -175 369 -1 1 -127 43 -280 92 l-278 90
-291 -1 -291 -1 -273 -89z"/>
<path d="M9056 11147 c-18 -40 -250 -579 -516 -1200 -266 -620 -487 -1124
-490 -1120 -4 5 -236 542 -516 1196 -392 913 -513 1187 -526 1187 -21 0 -68
-21 -68 -30 0 -4 238 -565 529 -1246 l529 -1239 49 -3 c32 -2 53 2 60 10 7 10
1031 2398 1058 2469 4 11 -5 20 -35 32 l-42 16 -32 -72z"/>
<path d="M12310 6761 l0 -290 -117 -3 c-114 -3 -118 -4 -121 -25 -3 -23 -2
-23 117 -23 l121 0 0 -428 0 -428 43 -126 42 -127 94 -46 c93 -45 95 -46 185
-43 83 3 91 5 91 23 0 18 -8 20 -95 25 -83 5 -104 10 -162 40 l-68 34 -40 121
-40 120 0 417 0 417 158 3 c154 3 157 3 160 26 l3 22 -160 0 -161 0 -2 288 -3
287 -22 3 -23 3 0 -290z"/>
<path d="M19227 7043 c-4 -3 -7 -184 -7 -402 l0 -395 -67 66 c-50 48 -93 78
-160 112 l-93 46 -130 0 -130 0 -98 -50 c-85 -43 -108 -61 -180 -139 l-83 -90
-45 -133 c-38 -115 -44 -143 -44 -217 0 -76 5 -101 47 -221 l46 -135 86 -88
c75 -77 98 -94 180 -133 l94 -44 128 0 129 0 87 40 c70 33 103 56 161 113 l72
71 0 -102 c0 -95 1 -102 20 -102 20 0 20 7 20 905 0 748 -2 905 -13 905 -8 0
-17 -3 -20 -7z m-248 -662 c53 -27 104 -65 159 -116 l82 -77 0 -342 0 -341
-77 -77 c-58 -56 -99 -87 -160 -117 l-83 -41 -130 0 -130 0 -78 39 c-59 30
-97 60 -163 128 l-87 88 -41 125 c-32 98 -41 140 -41 195 0 55 9 97 41 195
l41 125 87 88 c64 66 105 98 161 127 l75 39 133 1 132 0 79 -39z"/>
<path d="M9030 6422 l-135 -47 -48 -92 -47 -92 49 -98 49 -98 98 -47 c88 -43
121 -52 305 -87 176 -34 217 -45 285 -79 78 -39 80 -41 122 -120 55 -104 55
-133 0 -238 l-42 -81 -111 -37 c-105 -34 -118 -36 -246 -36 -129 0 -139 2
-249 38 l-115 38 -42 79 c-22 44 -45 81 -50 82 -5 2 -17 -3 -27 -10 -17 -13
-16 -18 27 -103 l45 -89 138 -43 c133 -41 145 -43 262 -42 119 0 129 2 269 46
l145 46 44 94 c60 127 59 164 -1 284 l-45 90 -88 44 c-77 39 -113 49 -297 85
-178 35 -224 48 -299 84 l-88 42 -39 78 -39 77 40 79 39 79 108 36 c104 34
114 36 249 36 133 0 145 -2 240 -34 54 -19 107 -37 117 -41 10 -4 36 -43 58
-86 21 -44 42 -79 45 -79 3 0 14 4 24 10 18 9 16 15 -23 100 l-42 90 -135 45
-135 45 -140 -1 -140 0 -135 -47z"/>
<path d="M24595 6424 c-77 -38 -103 -58 -177 -137 -88 -92 -88 -92 -128 -212
-37 -110 -40 -129 -40 -225 0 -96 4 -116 41 -230 l41 -125 92 -93 c79 -81 103
-99 185 -137 l94 -45 129 0 128 0 93 44 c79 37 104 56 179 132 l88 89 45 135
c40 120 45 144 45 225 0 79 -5 106 -41 215 l-41 125 -97 98 c-80 82 -111 106
-183 143 l-88 44 -137 -1 -138 0 -90 -45z m443 -43 c58 -30 98 -60 159 -123
83 -83 83 -83 123 -203 56 -167 56 -241 -1 -415 -41 -124 -42 -125 -118 -203
-59 -62 -95 -88 -163 -123 l-88 -44 -130 0 -130 0 -78 39 c-58 30 -97 60 -158
123 l-82 83 -41 125 c-56 171 -56 229 0 400 l41 125 87 88 c64 66 105 98 161
127 l75 39 133 1 132 0 78 -39z"/>
<path d="M27795 6427 l-130 -42 -49 -94 -49 -94 48 -97 48 -97 106 -51 c97
-47 124 -55 313 -91 178 -34 217 -45 280 -78 72 -37 74 -40 116 -122 23 -46
42 -96 42 -112 0 -16 -19 -67 -42 -114 l-42 -85 -121 -40 c-116 -39 -124 -40
-255 -40 -128 0 -139 2 -246 37 l-111 36 -42 84 c-39 78 -60 99 -77 72 -4 -7
13 -51 37 -100 l43 -89 142 -45 c138 -44 146 -45 271 -45 122 0 134 2 263 43
l135 42 47 95 c62 123 62 147 3 273 l-45 97 -98 49 c-89 45 -117 53 -313 92
-186 36 -224 47 -293 83 l-80 41 -35 79 -35 79 39 73 c21 40 45 76 54 80 9 3
61 21 115 40 96 33 105 34 245 33 142 0 149 -1 251 -37 l105 -37 43 -82 c40
-78 62 -98 78 -72 4 7 -12 51 -36 99 l-43 88 -142 46 c-141 46 -143 46 -276
45 -129 0 -138 -2 -264 -42z"/>
<path d="M14949 6018 l0 -433 43 -136 43 -137 93 -46 92 -46 135 0 135 0 93
46 c82 41 103 58 199 157 l107 112 0 -147 1 -148 25 0 25 0 0 606 0 605 -22
-3 -23 -3 -3 -432 -2 -431 -126 -119 c-90 -85 -146 -128 -197 -155 l-72 -37
-133 -1 -132 0 -78 39 -77 39 -42 129 -43 129 0 422 c0 415 0 422 -20 422 -20
0 -20 -7 -21 -432z"/>
</g>
</svg>
